<?xml version="1.0" encoding="UTF-8"?>
<svg version="1.1" viewBox="0 0 1600 1600" width="31.8" height="32" xmlns="http://www.w3.org/2000/svg">
<path transform="translate(414,163)" d="m0 0h35l34 2 11 3 5 5 4 11v33l-4 45h47l175 1 1-40 3-17 5-12 6-8 10-7 10-4 17-3 12-1h10l26 3 21 5 14 7 5 6 5 10 4 15 2 25v20l109 1h58l40-2 37-3 17-3 2-1-2-12-7-28-1-6v-13l8-16 4-5 10-6 10-4 5-1h43l22 3 13 5 9 6 6 8 4 9 7 35h17l12-1 20 4 17 5 13 6 14 8 13 12 8 8 10 13 13 22 12 28 7 25 5 26 4 27 2 19 1 16v109l-2 67-2 110v185l1 85 2 74 4 117v75l-2 22-4 17-8 21-9 16-9 12-9 10-7 7-17 12-15 7-24 8-22 4-29 3-15 1-164 2-87 3-252 14-89 4-68 2h-47l-39-1-59-3-55-5-52-6-29-5-22-6-21-7-20-9-16-9-16-12-14-12-7-7-9-11-10-14-9-15-10-21-6-19-3-12-2-17v-59l7-172 3-88 1-51v-101l-2-54-6-112-2-43v-52l3-35 4-27 8-30 9-24 10-21 9-15 7-11 10-14 12-14 9-9 8-7 14-10 18-10 17-8 16-5 35-6h2l5-31 6-23 8-19 8-12 8-8 14-7zm849 190-6 7-9 16-2 4-4 2-13 6-9 2h-10l-17-3-20-8-6-9-7-11-5-2-5 4-3 6-1 5v8l3 11 4 10 7 9 11 8 14 5 15 2h9l20-3 21-7 11-7 8-7 7-10 2-6v-16l-4-10-5-5zm-895 25-4 4-2 9 2 14 5 12 7 9 9 7 14 7 16 4 7 1h12l16-3 16-7 10-7 8-10 5-8 4-15-1-9h-4l-6 9-10 9-14 8-13 4-6 1h-15l-12-3-13-7-12-11-10-14-5-4zm502 5-7 5-7 8-9 11-8 7-13 5-5 1h-20l-27-5-16-7-10-6-18-14-6-4h-2l1 10 7 22 9 15 9 9 11 7 18 8 15 4 8 1h23l15-4 16-8 10-9 7-10 5-11 1-4v-22l-3-9z" fill="#F6F9FC"/>
<path transform="translate(414,163)" d="m0 0h35l34 2 11 3 5 5 4 11v33l-4 45h47l175 1 1-40 3-17 5-12 6-8 10-7 10-4 17-3 12-1h10l26 3 21 5 14 7 5 6 5 10 4 15 2 25v20l109 1h58l40-2 37-3 17-3 2-1-2-12-7-28-1-6v-13l8-16 4-5 10-6 10-4 5-1h43l22 3 13 5 9 6 6 8 4 9 7 35h17l12-1 20 4 17 5 13 6 14 8 13 12 8 8 10 13 13 22 12 28 7 25 5 26 4 27 2 19 1 16v109l-2 67-2 110v185l1 85 2 74 4 117v75l-2 22-4 17-8 21-9 16-9 12-9 10-7 7-17 12-15 7-24 8-22 4-29 3-15 1-164 2-87 3-252 14-89 4-68 2h-47l-39-1-59-3-55-5-52-6-29-5-22-6-21-7-20-9-16-9-16-12-14-12-7-7-9-11-10-14-9-15-10-21-6-19-3-12-2-17v-59l7-172 3-88 1-51v-101l-2-54-6-112-2-43v-52l3-35 4-27 8-30 9-24 10-21 9-15 7-11 10-14 12-14 9-9 8-7 14-10 18-10 17-8 16-5 35-6h2l5-31 6-23 8-19 8-12 8-8 14-7zm849 190-6 7-9 16-2 4-4 2-13 6-9 2h-10l-17-3-20-8-6-9-7-11-5-2-5 4-3 6-1 5v8l3 11 4 10 7 9 11 8 14 5 15 2h9l20-3 21-7 11-7 8-7 7-10 2-6v-16l-4-10-5-5zm-895 25-4 4-2 9 2 14 5 12 7 9 9 7 14 7 16 4 7 1h12l16-3 16-7 10-7 8-10 5-8 4-15-1-9h-4l-6 9-10 9-14 8-13 4-6 1h-15l-12-3-13-7-12-11-10-14-5-4zm502 5-7 5-7 8-9 11-8 7-13 5-5 1h-20l-27-5-16-7-10-6-18-14-6-4h-2l1 10 7 22 9 15 9 9 11 7 18 8 15 4 8 1h23l15-4 16-8 10-9 7-10 5-11 1-4v-22l-3-9zm431 192-46 2-110 9-78 6-42 2-66 1-85-1-171-3-109-3h-102l-48 1-98 4-121 9-17 1-9-2-1 1v14l2 25 4 80 1 33v162l-1 50-6 147-3 72v63l4 18 8 22 9 15 11 16 10 11 5 6 8 7 13 10 17 10 10 5 15 5 8 3 27 7 30 5 36 4 58 5 17 1 33 1h161l72-3 79-4 64-4 98-6 66-3 39-1 143-2 34-1 32-2 19-3 15-4 12-5 9-5 13-10 9-10 12-18 8-19 4-19 1-13v-55l-3-91-2-55-1-34-2-130v-101l1-92 2-107v-15l-2-4-3-1h-9v-2l-14-3-20-2z" fill="#030203"/>
<path transform="translate(1270,259)" d="m0 0 13 1 26 7 19 8 13 7 10 8 11 14 13 25 8 21 7 25 6 31 5 40 2 36v63l-1 2h-16l-32-3h-56l-57 3-73 6-57 5-62 4-29 1h-118l-143-2-73-2-97-2h-120l-87 3-74 4-72 6-38 2-3-2-1-21v-33l2-19 4-24 12-46 10-27 11-23 8-12 8-10 12-13 16-13 16-10 17-9 16-6 14-3 10 1 6 4 4 6 5 14 2 9-7 9-8 7-6 5-7 9-4 5-4 9-3 14 1 15 3 12 6 12 6 8 6 7 10 8 16 9 15 7 17 5 21 3h12l14-2 15-5 19-11 10-9 9-10 11-21 3-8 1-18-2-10-4-11-5-12-11-18-5-7-1-3-1-32 3-6 9-1h198l14 1 4 2 1 4v15l-2 11-8 18-8 11-7 16-5 16-1 16 3 14 5 12 6 10 8 10 10 10 14 10 16 9 19 8 19 5 14 2h16l18-3 16-6 16-9 11-9 10-11 6-10 9-19 3-14v-13l-3-13-8-16-8-11-5-5-5-4-6-4-6-9-1-3v-36l3-5h179l70-3h29l3 5-1 7-6 12-10 9-12 16-7 12-4 14v19l4 17 6 11 7 9 11 12 15 10 15 7 19 5h29l20-3 16-5 16-7 11-7 8-7h2l2-4 8-11 8-16 2-7 1-18-4-13-9-16-13-16-18-12-5-5-2-7v-12l1-17 4-13z" fill="#283BDE"/>
<path transform="translate(500,681)" d="m0 0h63l47 1 19 1 4 1 2 5 2 20 3 75 1 34v26h-2l-1 9-2 4-10 4-7 1-19 1-67 1-35 1h-77l-11-3-4-9 1-28 4-87 2-33 4-2v-2l15-6 22-7 26-5z" fill="#030202"/>
<path transform="translate(463,1131)" d="m0 0h123l28 2 12 3 4 11 1 7v106l-2 22-3 15h-2l-1 3-6 2h-19l-23-1-39-1-128-1-6-2-4-13-1-6v-33l4-42 1-18 1-33 2-17 26-2h32z" fill="#030203"/>
<path transform="translate(454,909)" d="m0 0h139l24 1 16 2 3 1 3 13 2 20v32l-2 30-3 23-4 21-4 11-6 4-6 1-38 1h-155l-11-3-6-7-3-9-2-19v-26l2-35 4-31 6-15 8-10 12-3z" fill="#030202"/>
<path transform="translate(1010,899)" d="m0 0h25l130 3 29 2 9 2 3 1 3 8v39l-2 78-1 23-2 15-6 2h-49l-102-4-17-1-15-3-10-4-5-7-2-5-1-63-2-46-1-18v-19l6-2z" fill="#030202"/>
<path transform="translate(726,1125)" d="m0 0h42l70 3 73 2 19 1 2 2v162l-1 1-25 2-139 3-14-1-15-5-4-8-2-9-1-9-3-72-4-36-2-24v-11z" fill="#030202"/>
<path transform="translate(1035,671)" d="m0 0h129l29 2 6 2 5 14 4 24 7 56 8 43 2 14-3 16h-2l-1 3-7 2h-25l-64-4-23-1-65-1-5-6-10-30-8-32-6-36-2-20v-29l2-13 9-2 18-1z" fill="#030203"/>
<path transform="translate(766,660)" d="m0 0h33l80 3 44 3 7 2 1 1v44l-1 25v90l-2 9-1 1h-30l-73-2-53-1-23-2-12-2-3-21-2-44-1-35v-59l3-3h2v-2l14-5z" fill="#030202"/>
<path transform="translate(1040,1123)" d="m0 0h97l35 2 20 4 6 3 6 5 5 7 5 13 3 17 4 42 1 15v45l-3 3-9 2-18 1h-164l-16-1-7-2-2-7-3-32-1-2v-68l3-17 4-16 4-7 4-3 18-3z" fill="#030202"/>
<path transform="translate(737,901)" d="m0 0h38l129 5 28 3 2 6 2 22 1 31v79l-1 7-6 7-7 3h-3v2l-49 1h-37l-78-1-9-2-4-6-4-21-5-42-3-37-1-17v-39z" fill="#030202"/>
<path transform="translate(510,715)" d="m0 0h75l16 2 4 4 2 40 1 24v44l-3 2-14 1-95 1h-54l-2-1v-34l3-53 2-15 3-6 10-3 26-4z" fill="#F4F7FB"/>
<path transform="translate(456,1166)" d="m0 0h135l5 2 2 3 1 5v91h-32l-30-1h-105l-2-3v-12l6-70 2-11 3-3z" fill="#F4F7FB"/>
<path transform="translate(520,941)" d="m0 0h81l7 2 1 2v38l-3 49-4 3h-166l-2-2v-55l2-28 5-5 2-1 10-1z" fill="#F4F7FB"/>
<path transform="translate(1030,933)" d="m0 0 48 1 75 1 19 1 4 2 1 7-1 69-1 25h-34l-99-4-9-1-2-2-1-11-1-36v-51z" fill="#F6F9FC"/>
<path transform="translate(1115,703)" d="m0 0h55l4 5 3 17 5 40 7 43v5h-21l-44-3-21-1-1-1-47-1-4-11-6-24-5-26-2-15v-26l1-1z" fill="#F4F6FB"/>
<path transform="translate(763,694)" d="m0 0h59l59 2 15 2 2 2v45l-2 59-1 1h-27l-95-4-7-2-2-6-1-14-1-48v-35z" fill="#F3F5FB"/>
<path transform="translate(766,206)" d="m0 0h27l25 2 15 4 4 3 2 11 2 33v46l-3 36-4 20-7 19-6 7-5 2h-11l-22-5-16-8-6-10-4-12-3-29v-64l3-48 3-5z" fill="#A08BCD"/>
<path transform="translate(1068,1155)" d="m0 0h75l20 1 11 2 8 7 4 17 3 32 1 16v17l-2 1h-94l-59-1-3-5-2-44v-25l2-9 4-5 6-2 7-1z" fill="#F3F6FB"/>
<path transform="translate(759,1160)" d="m0 0 105 3 28 1 5 2 2 3v93l-1 2-3 1-90 2h-32l-5-2-3-6-1-7-4-68-1-12z" fill="#F5F7FC"/>
<path transform="translate(763,936)" d="m0 0h24l52 1 49 2 11 2 4 4 1 2 1 17 1 36v33l-2 2h-96l-29-1-7-1-3-6-3-24-3-45z" fill="#F3F6FB"/>
<path transform="translate(413,196)" d="m0 0h33l22 2 3 1 1 7-3 22-5 62-2 54-2 15-6 16-9 9-12 2-10-3-9-6-8-9-6-10-4-13-5-26-2-22-1-30 1-16 4-18 9-27 6-8z" fill="#9F8ACD"/>
<path transform="translate(1158,195)" d="m0 0h15l38 3 16 3 2 2 1 7v119l-2 16-4 10-3 3-8 1-5 1-3-3-7-2-7-8-6-16-15-73-8-42-4-17z" fill="#9E89CD"/>
<path transform="translate(1301,575)" d="m0 0h50l12 1v1h-59l-42 2-174 14-40 3-68 3h-53l-77-2-32-1-60-1-149-4h-129l-74 2-46 2-51 3-70 5h-14v-1l121-9 98-4 48-1h102l109 3 171 3 100 1 51-1 57-3 173-14z" fill="#716BD3"/>
<path transform="translate(199,601)" d="m0 0 3 1-2 4 2 13 4 86 3 107v42l-1 30-2 85-2 49h-1v-26l1-26 1-50v-162l-2-57-4-73-1-8v-14z" fill="#6563D5"/>
<path transform="translate(1030,933)" d="m0 0 48 1 75 1 19 1 4 2 1 7-1 69-1 25-2-1 1-30v-68l-1-1-137-3-6-1v50h-1v-51z" fill="#726CD3"/>
<path transform="translate(619,861)" d="m0 0h7v1l-6 1-43 2-85 2h-59l-12-1v-1l77-1 35-1 67-1z" fill="#746DD3"/>
<path transform="translate(837,219)" d="m0 0h1l2 20 1 20v46l-3 36-3 16h-1l2-26 1-17z" fill="#283BDE"/>
<path transform="translate(719,593)" d="m0 0h104l51 1v1l-24 1h-32l-60-1-39-1z" fill="#776FD3"/>
<path transform="translate(804,1264)" d="m0 0h91v1l-90 2h-32l-4-2z" fill="#7C73D2"/>
<path transform="translate(199,601)" d="m0 0 3 1-2 4 2 13 1 17v20h-1l-2-40h-2v-14z" fill="#887BD0"/>
<path transform="translate(1204,353)" d="m0 0h2l3 5 2 1 1-4 10 1-1 2-8 1-5 1-3-3-5-1z" fill="#283BDE"/>
</svg>
